<?xml version="1.0" standalone="no"?>
<!DOCTYPE svg PUBLIC "-//W3C//DTD SVG 20010904//EN"
 "http://www.w3.org/TR/2001/REC-SVG-20010904/DTD/svg10.dtd">
<svg version="1.0" xmlns="http://www.w3.org/2000/svg"
 width="512.000000pt" height="512.000000pt" viewBox="0 0 512.000000 512.000000"
 preserveAspectRatio="xMidYMid meet">
<metadata>
Created by potrace 1.14, written by Peter Selinger 2001-2017
</metadata>
<g transform="translate(0.000000,512.000000) scale(0.100000,-0.100000)"
fill="#000000" stroke="none">
<path d="M2295 5104 c-183 -23 -399 -85 -585 -167 l-35 -15 -83 63 c-119 89
-208 114 -290 80 -106 -45 -152 -164 -122 -320 7 -36 10 -69 6 -72 -3 -4 -16
-1 -29 5 -41 20 -298 93 -376 107 -14 2 -51 9 -81 15 -149 28 -342 31 -440 6
-262 -67 -331 -308 -156 -546 86 -117 263 -270 448 -385 26 -17 47 -33 48 -37
0 -4 -13 -36 -30 -70 -16 -34 -30 -65 -30 -70 0 -4 -8 -27 -19 -51 -39 -87
-80 -225 -115 -382 -24 -110 -30 -143 -44 -265 -9 -85 -9 -487 1 -570 7 -62
10 -83 22 -156 4 -25 -5 -45 -50 -113 -94 -141 -149 -273 -180 -434 -15 -76
-17 -292 -4 -342 5 -16 11 -46 14 -65 29 -174 167 -415 337 -588 151 -155 194
-181 249 -151 17 9 32 3 92 -39 68 -47 72 -52 69 -85 -3 -28 2 -39 25 -57 28
-22 252 -133 328 -163 179 -69 394 -133 550 -163 11 -2 43 -8 70 -13 44 -9
164 -27 235 -36 201 -26 716 -26 870 -1 14 3 46 7 72 10 40 6 226 38 283 50
228 48 512 149 725 258 495 254 823 641 887 1046 10 63 10 266 0 322 -29 162
-91 312 -189 459 -53 78 -53 81 -32 184 26 126 25 590 -1 727 -2 14 -7 42 -9
62 -22 170 -100 429 -191 632 -14 33 -22 62 -18 65 5 3 50 34 101 69 335 228
492 419 494 603 2 142 -87 249 -245 294 -62 18 -211 23 -332 11 -134 -13 -365
-66 -526 -121 -40 -14 -73 -25 -75 -25 -1 0 4 29 12 64 33 160 -14 291 -121
332 -88 33 -179 6 -303 -90 -70 -56 -89 -64 -107 -47 -26 24 -325 125 -430
146 -39 7 -129 23 -180 30 -86 13 -402 12 -510 -1z"/>
</g>
</svg>
